<?xml version="1.0" encoding="utf-8"?>
<!-- Generator: Adobe Illustrator 26.3.1, SVG Export Plug-In . SVG Version: 6.00 Build 0)  -->
<svg version="1.1" id="Capa_1" xmlns="http://www.w3.org/2000/svg" xmlns:xlink="http://www.w3.org/1999/xlink" x="0px" y="0px"
	 viewBox="0 0 535.46 197.05" style="enable-background:new 0 0 535.46 197.05;" xml:space="preserve">
<style type="text/css">
	.st0{fill:#FFFFFF;}
</style>
<g>
	<path class="st0" d="M25.57,101.24c0-1.25,0-2.5,0-3.75c0.09-0.21,0.22-0.41,0.26-0.62c1.11-5.4,4.17-9.2,9.18-11.51
		c0.53-0.25,0.95-1.18,1.06-1.85c0.44-2.63,0.62-5.31,1.12-7.92c3.5-18.03,13.5-31.48,29.11-40.89c11.62-7,24.36-10.49,37.77-11.55
		c17.58-1.39,34.6,0.93,50.56,8.84c10.81,5.35,19.76,12.89,26.18,23.23c5.33,8.57,8.14,17.94,8.89,27.96
		c0.09,1.26,0.51,1.93,1.71,2.56c1.77,0.94,3.43,2.22,4.89,3.61c2.3,2.18,3.21,5.16,3.99,8.14c0,1.25,0,2.5,0,3.75
		c-0.63,2.88-1.53,5.62-3.44,7.96c-0.2,0.24-0.2,0.91,0,1.15c1.91,2.33,2.81,5.08,3.44,7.96c0,1.25,0,2.5,0,3.75
		c-0.11,0.32-0.25,0.63-0.33,0.96c-1.19,5.24-4.22,8.93-9.12,11.16c-0.52,0.24-1.04,1.02-1.13,1.61c-1.91,13-9.37,21.46-21.37,26.2
		c-8,3.16-16.38,4.09-24.9,4.1c-20.35,0.02-40.7,0.01-61.05,0c-7.42,0-14.75-0.73-21.85-3.03c-13.5-4.37-22.32-12.9-24.44-27.45
		c-0.08-0.57-0.74-1.13-1.25-1.54c-1.97-1.58-4.41-2.78-5.89-4.72c-1.59-2.08-2.31-4.84-3.41-7.3c0-1.25,0-2.5,0-3.75
		c0.63-2.88,1.53-5.62,3.44-7.96c0.2-0.24,0.2-0.91,0-1.15C27.11,106.86,26.2,104.12,25.57,101.24z M179.53,84.09
		c-0.04-0.76-0.04-1.43-0.12-2.09c-2.29-18.35-12.04-31.51-28.15-40.13c-8.93-4.78-18.54-7.34-28.59-8.33
		c-16.64-1.64-32.7,0.41-47.69,8.17c-14.69,7.6-24.35,19.27-27.77,35.7c-0.45,2.18-0.65,4.41-0.98,6.68
		C90.85,84.09,135.13,84.09,179.53,84.09z M179.35,135.45c-44.32,0-88.52,0-132.78,0c0.04,0.31,0.06,0.53,0.1,0.75
		c0.06,0.34,0.12,0.67,0.2,1c1.81,7.08,6.38,11.74,12.91,14.66c7.33,3.28,15.13,3.94,23,3.96c20.12,0.05,40.25,0.03,60.37,0
		c2.56,0,5.12-0.13,7.66-0.35c6.15-0.53,12.15-1.72,17.62-4.78C174.42,147.35,178.18,142.38,179.35,135.45z M141.92,125.08
		c-0.96-0.8-1.83-1.43-2.59-2.18c-2.36-2.3-4.63-4.7-7.04-6.95c-0.62-0.58-1.64-1.02-2.48-1.02c-11.26-0.07-22.51-0.07-33.77,0
		c-0.84,0.01-1.85,0.47-2.47,1.05c-3.18,3.01-6.25,6.14-9.24,9.09C103.32,125.08,122.58,125.08,141.92,125.08z M80.54,125.13
		c-1.08-0.91-2.03-1.62-2.87-2.44c-2.37-2.29-4.67-4.65-7.05-6.93c-0.41-0.4-1.03-0.83-1.55-0.83c-9.49-0.04-18.97-0.06-28.46,0.01
		c-2.1,0.02-3.63,1.25-4.42,3.22c-1.38,3.44,1.13,6.93,5.05,6.95c7.9,0.04,15.79,0.01,23.69,0.01
		C70.09,125.13,75.25,125.13,80.54,125.13z M145.67,125.13c1.72,0,3.59,0,5.47,0c11.08,0,22.16,0.01,33.23,0
		c2.63,0,4.48-1.15,5.31-3.21c1.4-3.5-1.13-7-5.16-7.01c-8.92-0.03-17.84,0.01-26.76-0.04c-1.17-0.01-2,0.31-2.83,1.15
		C151.88,119.1,148.75,122.11,145.67,125.13z M64.88,94.47c5.6,5.8,11.53,11.94,17.15,17.76c5.96-5.96,11.92-11.92,17.75-17.76
		C88.11,94.47,76.13,94.47,64.88,94.47z M161.3,94.55c-11.57,0-23.58,0-35.32,0c5.91,5.92,11.89,11.89,17.98,17.99
		C149.73,106.56,155.62,100.44,161.3,94.55z M58.95,104.64c-3.23-3.35-6.36-6.61-9.54-9.84c-0.27-0.27-0.82-0.36-1.24-0.37
		c-2.44-0.03-4.89-0.07-7.33,0.01c-2.84,0.09-4.97,2.29-5.02,5.01c-0.05,2.79,2.12,5.13,5.03,5.17
		C46.87,104.69,52.9,104.64,58.95,104.64z M166.93,104.65c6.01,0,11.98,0.04,17.94-0.02c2.95-0.03,5.14-2.23,5.18-5.02
		c0.04-2.86-2.18-5.11-5.2-5.18c-2.39-0.06-4.77-0.03-7.16,0c-0.42,0.01-0.96,0.11-1.23,0.38
		C173.29,98.04,170.15,101.31,166.93,104.65z M120.53,104.59c-2.6-2.6-5.16-5.15-7.43-7.42c-2.46,2.45-5.03,5-7.46,7.42
		C110.41,104.59,115.49,104.59,120.53,104.59z"/>
	<path class="st0" d="M102.69,53.48c-0.01,2.78-2.34,5.1-5.13,5.09c-2.78-0.01-5.1-2.34-5.08-5.13c0.01-2.78,2.34-5.1,5.13-5.09
		C100.39,48.36,102.7,50.69,102.69,53.48z"/>
	<path class="st0" d="M128.3,48.35c2.78,0,5.1,2.33,5.1,5.11c0,2.78-2.33,5.1-5.11,5.1c-2.78,0-5.1-2.33-5.1-5.11
		C123.2,50.67,125.52,48.35,128.3,48.35z"/>
	<path class="st0" d="M77.14,63.71c2.79,0.02,5.09,2.35,5.08,5.14c-0.02,2.79-2.35,5.09-5.14,5.08c-2.79-0.02-5.09-2.35-5.08-5.14
		C72.02,66,74.35,63.69,77.14,63.71z"/>
	<path class="st0" d="M112.96,63.71c2.78,0.01,5.1,2.34,5.09,5.12c-0.01,2.78-2.34,5.1-5.12,5.09c-2.78-0.01-5.1-2.34-5.09-5.12
		C107.84,66.01,110.17,63.7,112.96,63.71z"/>
	<path class="st0" d="M148.79,63.71c2.78,0.01,5.1,2.34,5.09,5.12c-0.01,2.78-2.34,5.1-5.12,5.09c-2.78-0.01-5.1-2.34-5.09-5.12
		C143.68,66.01,146.01,63.7,148.79,63.71z"/>
</g>
<g>
	<path class="st0" d="M260.58,80.33c3.83,0,6.86,0.87,9.09,2.6c2.23,1.73,3.35,4.06,3.35,6.97c0,4.66-1.91,7.92-5.74,9.75
		c5.18,1.79,7.77,5.11,7.77,9.93c0,3.63-1.55,6.65-4.66,9.06c-3.11,2.41-7.02,3.62-11.72,3.62c-2.47,0-6.16-0.22-11.06-0.66
		l0.72-14.53l-0.72-26.73H260.58z M259.81,103.84h-4.84l-0.06,2.21l0.42,9.75c2.31,0.2,4.09,0.3,5.32,0.3
		c2.11,0,3.76-0.53,4.93-1.58c1.18-1.06,1.76-2.6,1.76-4.64c0-2.03-0.6-3.55-1.79-4.55C264.35,104.34,262.44,103.84,259.81,103.84z
		 M258.43,86.37h-2.93l-0.36,11.66h3.89c2.03,0,3.59-0.55,4.66-1.64c1.08-1.1,1.62-2.66,1.62-4.7
		C265.31,88.15,263.02,86.37,258.43,86.37z"/>
	<path class="st0" d="M288.16,121.6c-2.15,0-3.9-0.71-5.23-2.12c-1.34-1.41-2-3.28-2-5.59l0.36-6.88l-0.66-14.35l8.02-1.5
		l-0.78,18.18c0,1.71,0.31,2.97,0.93,3.77c0.62,0.8,1.6,1.2,2.96,1.2c1.36,0,3.23-0.68,5.62-2.03v-3.59l-0.66-15.73l8.07-1.5
		l-0.72,14.95l0.06,4.9c0,2.55,0.66,5.12,1.97,7.72l-6.22,2.75c-1.31-2.59-2.11-4.66-2.39-6.22
		C293.9,119.59,290.79,121.6,288.16,121.6z"/>
	<path class="st0" d="M310.82,92.71l7.24-1.55c0.36,3.07,0.6,5.98,0.72,8.73c3.63-5.62,7.04-8.43,10.23-8.43l-0.66,9.33
		c-2.31,0-4.14,0.21-5.47,0.63s-2.7,1.25-4.1,2.48v2.15l0.66,14.06l-8.01,1.5l0.72-14.53C311.98,101.72,311.54,96.94,310.82,92.71z"
		/>
	<path class="st0" d="M330.68,127.52c0-3.51,3.27-6.26,9.81-8.25c-1.55-0.8-2.33-1.83-2.33-3.11c0-0.52,0.2-1.04,0.6-1.55
		c0.4-0.52,0.98-1.06,1.74-1.61v-0.48c-2.87,0-5.15-0.8-6.85-2.39c-1.69-1.59-2.54-3.73-2.54-6.4c0-3.47,1.41-6.49,4.25-9.06
		c2.83-2.57,6.18-3.86,10.05-3.86c1,0,2.45,0.2,4.37,0.6c1.91,0.4,3.79,0.6,5.62,0.6h4.6l-0.6,5.2l-4.49-0.54
		c0.4,1.16,0.6,2.47,0.6,3.95c0,1.48-0.35,2.94-1.05,4.4c-0.7,1.46-1.54,2.62-2.51,3.5c-0.98,0.88-1.95,1.65-2.93,2.3
		c-0.98,0.66-1.81,1.24-2.51,1.74s-1.05,0.95-1.05,1.34c0,0.76,0.8,1.42,2.39,1.97c4.22,1.72,7.09,3.17,8.58,4.37
		c1.5,1.2,2.24,2.67,2.24,4.43c0,2.95-1.49,5.37-4.46,7.27c-2.97,1.89-6.51,2.84-10.62,2.84s-7.29-0.66-9.54-1.97
		C331.8,131.47,330.68,129.71,330.68,127.52z M348.74,102.4c0-1.95-0.44-3.39-1.31-4.31c-0.88-0.92-2.25-1.38-4.13-1.38
		c-3.63,0-5.44,1.79-5.44,5.35c0,3.57,1.93,5.35,5.8,5.35C347.04,107.43,348.74,105.75,348.74,102.4z M350.89,125.55
		c0-0.72-0.38-1.39-1.14-2c-0.76-0.62-2.11-1.35-4.07-2.18c-2.91,0.8-4.91,1.53-6.01,2.21c-1.1,0.68-1.64,1.51-1.64,2.51
		c0,1,0.55,1.8,1.64,2.42c1.1,0.62,2.62,0.93,4.57,0.93c1.95,0,3.55-0.36,4.78-1.08C350.27,127.64,350.89,126.7,350.89,125.55z"/>
	<path class="st0" d="M373.92,115.5c1.16,0,2.37-0.3,3.65-0.9c1.28-0.6,2.27-1.2,2.99-1.79l1.08-0.9l2.75,3.35
		c-0.4,0.68-1.02,1.46-1.85,2.33c-0.84,0.88-1.68,1.62-2.54,2.24c-0.86,0.62-1.99,1.18-3.41,1.68c-1.42,0.5-2.88,0.75-4.4,0.75
		c-3.23,0-5.86-1.23-7.89-3.68c-2.03-2.45-3.05-5.61-3.05-9.48c0-4.86,1.41-9.13,4.25-12.8c2.83-3.67,6.14-5.5,9.93-5.5
		c2.91,0,5.17,0.82,6.79,2.45c1.62,1.64,2.42,3.93,2.42,6.88c0,1.76-0.3,3.75-0.9,5.98l-1.2,1.26l-14.95,1.38
		C368.25,113.25,370.37,115.5,373.92,115.5z M373.92,96.96c-1.75,0-3.23,0.71-4.43,2.12c-1.2,1.42-1.89,3.22-2.09,5.41l10.17-1.26
		c0.12-0.92,0.18-1.68,0.18-2.27C377.74,98.3,376.47,96.96,373.92,96.96z"/>
	<path class="st0" d="M389.17,92.71l7.24-1.55c0.36,3.07,0.6,5.98,0.72,8.73c3.63-5.62,7.04-8.43,10.23-8.43l-0.66,9.33
		c-2.31,0-4.14,0.21-5.47,0.63c-1.34,0.42-2.7,1.25-4.1,2.48v2.15l0.66,14.06l-8.02,1.5l0.72-14.53
		C390.33,101.72,389.89,96.94,389.17,92.71z"/>
	<path class="st0" d="M425.41,80.33c3.83,0,6.86,0.87,9.09,2.6c2.23,1.73,3.35,4.06,3.35,6.97c0,4.66-1.91,7.92-5.74,9.75
		c5.18,1.79,7.78,5.11,7.78,9.93c0,3.63-1.56,6.65-4.67,9.06c-3.11,2.41-7.02,3.62-11.72,3.62c-2.47,0-6.16-0.22-11.06-0.66
		l0.72-14.53l-0.72-26.73H425.41z M424.63,103.84h-4.84l-0.06,2.21l0.42,9.75c2.31,0.2,4.08,0.3,5.32,0.3
		c2.11,0,3.76-0.53,4.94-1.58c1.17-1.06,1.76-2.6,1.76-4.64c0-2.03-0.6-3.55-1.79-4.55C429.18,104.34,427.26,103.84,424.63,103.84z
		 M423.26,86.37h-2.93l-0.36,11.66h3.89c2.04,0,3.59-0.55,4.67-1.64c1.08-1.1,1.62-2.66,1.62-4.7
		C430.13,88.15,427.84,86.37,423.26,86.37z"/>
	<path class="st0" d="M448.14,96.12c2.75-3.55,5.97-5.32,9.66-5.32s6.56,1.2,8.61,3.59c2.05,2.39,3.08,5.56,3.08,9.51
		c0,5.26-1.33,9.64-3.98,13.13c-2.65,3.49-5.99,5.23-10.02,5.23c-3.31,0-6.05-1.24-8.22-3.74c-2.18-2.49-3.26-5.63-3.26-9.42
		C444.01,104,445.38,99.67,448.14,96.12z M462.79,107.01c0-5.78-1.97-8.67-5.92-8.67c-4.11,0-6.16,2.71-6.16,8.13
		c0,2.83,0.58,5.04,1.74,6.64c1.16,1.59,2.68,2.39,4.57,2.39c1.89,0,3.33-0.73,4.31-2.18C462.3,111.86,462.79,109.76,462.79,107.01z
		"/>
	<path class="st0" d="M492.27,122.2l-7.12-10.59l-7.36,10.59l-5.92-3.29l9.39-12.14l-8.91-11l6.64-4.55l6.52,10.11l7.06-10.23
		l5.8,3.59l-8.91,11.6l9.45,11.36L492.27,122.2z"/>
</g>
</svg>
